<svg width="32" height="32" viewBox="0 0 32 32" fill="none" xmlns="http://www.w3.org/2000/svg">
<path fill-rule="evenodd" clip-rule="evenodd" d="M8.33333 9.33341C8.33333 13.5601 11.7733 17.0001 16 17.0001C20.2267 17.0001 23.6667 13.5601 23.6667 9.33341C23.6667 5.10675 20.2267 1.66675 16 1.66675C11.7733 1.66675 8.33333 5.10675 8.33333 9.33341ZM10.3333 9.33341C10.3333 6.21341 12.88 3.66675 16 3.66675C19.12 3.66675 21.6667 6.21341 21.6667 9.33341C21.6667 12.4534 19.12 15.0001 16 15.0001C12.88 15.0001 10.3333 12.4534 10.3333 9.33341ZM26.4535 29.3334C26.4535 29.8801 26.9069 30.3334 27.4535 30.3334C28.0002 30.3334 28.4535 29.8801 28.4535 29.3334C28.4535 23.6401 22.8669 19.0001 16.0002 19.0001C9.13354 19.0001 3.54688 23.6401 3.54688 29.3334C3.54688 29.8801 4.00021 30.3334 4.54688 30.3334C5.09354 30.3334 5.54688 29.8801 5.54688 29.3334C5.54688 24.7334 10.2402 21.0001 16.0002 21.0001C21.7602 21.0001 26.4535 24.7334 26.4535 29.3334Z" fill="#333333"/>
</svg>
