<svg width="16" height="16" viewBox="0 0 16 16" fill="none" xmlns="http://www.w3.org/2000/svg">
<path fill-rule="evenodd" clip-rule="evenodd" d="M0.833496 7.66683C0.833496 11.4335 3.90016 14.5002 7.66683 14.5002C11.4335 14.5002 14.5002 11.4335 14.5002 7.66683C14.5002 3.90016 11.4335 0.833496 7.66683 0.833496C3.90016 0.833496 0.833496 3.90016 0.833496 7.66683ZM1.8335 7.66683C1.8335 4.4535 4.44683 1.8335 7.66683 1.8335C10.8868 1.8335 13.5002 4.4535 13.5002 7.66683C13.5002 10.8802 10.8868 13.5002 7.66683 13.5002C4.44683 13.5002 1.8335 10.8802 1.8335 7.66683ZM14.3135 15.0201C14.4135 15.1201 14.5402 15.1667 14.6668 15.1667C14.7935 15.1667 14.9202 15.1201 15.0202 15.0201C15.2135 14.8268 15.2135 14.5068 15.0202 14.3134L13.6868 12.9801C13.4935 12.7867 13.1735 12.7867 12.9802 12.9801C12.7868 13.1734 12.7868 13.4934 12.9802 13.6868L14.3135 15.0201Z" fill="#999FA6"/>
</svg>
